#!OML:ASF X:\für Bonn\!DataBase\2005_08_12_Daniel\c3d\Daniel.ASF
:FULLY-SPECIFIED
:DEGREES
1
root 0.149314 16.7793 -9.95393 -1081.76 52.9801 7.61157
lowerback 27.6341 -0.178356 -5.65209
upperback 8.86948 -1.47896 -3.29343
thorax -5.27097 -0.50963 0.0581988
lowerneck 2.03643 -0.478881 -5.85493
upperneck 20.1783 -1.33152 7.65543
head 5.80885 -0.439199 3.38453
rclavicle -8.07066e-014 5.1684e-014
rhumerus -34.9478 -16.8934 -77.1412
rradius 18.5544
rwrist 25.7947
rhand -15.4428 -344.28
rfingers 7.12502
rthumb 10.7377 -373.986
lclavicle -8.07066e-014 5.1684e-014
lhumerus -746.79 41.9986 -656.545
lradius 19.4551
lwrist -39.8258
lhand -15.0071 355.902
lfingers 7.12502
lthumb 11.1579 385.585
rfemur 347.035 -12.7773 373.119
rtibia 77.5036
rfoot 2.25293 10.5922
rtoes 7.66257
lfemur -19.1542 -1.57857 -18.4334
ltibia 46.3668
lfoot -16.2531 -10.1889
ltoes 2.03938
2
root 0.243297 16.7858 -9.9125 -1082.1 52.321 7.23453
lowerback 27.7487 -0.286645 -5.60858
upperback 9.03034 -1.59931 -3.2685
thorax -5.1422 -0.571468 0.0983196
lowerneck 2.15551 -0.309358 -5.77137
upperneck 20.0662 -1.09035 7.51903
head 5.73587 -0.331713 3.3337
rclavicle -1.07344e-014 1.03368e-014
rhumerus -34.7949 -15.9075 -77.8836
rradius 19.5374
rwrist 23.8664
rhand -16.3941 -344.246
rfingers 7.12502
rthumb 9.81994 -373.997
lclavicle -1.07344e-014 1.03368e-014
lhumerus -746.032 41.1123 -655.796
lradius 19.6621
lwrist -38.8
lhand -15.4822 355.945
lfingers 7.12502
lthumb 10.6996 385.653
rfemur 345.864 -13.111 373.564
rtibia 77.1479
rfoot 2.17234 10.9417
rtoes 8.4177
lfemur -18.7816 -1.11108 -18.2312
ltibia 46.6857
lfoot -16.6696 -10.1615
ltoes 1.89115
3
root 0.337994 16.7903 -9.86886 -1082.4 51.694 6.92785
lowerback 27.8878 -0.395559 -5.61106
upperback 9.17359 -1.73513 -3.2324
thorax -5.04158 -0.640738 0.18187
lowerneck 2.23524 -0.142296 -5.69259
upperneck 20.0119 -0.847156 7.3493
head 5.68854 -0.224161 3.2739
rclavicle -3.69739e-014 5.24792e-014
rhumerus -34.7796 -15.0766 -78.4977
rradius 20.6057
rwrist 22.1643
rhand -17.2523 -344.1
rfingers 7.12502
rthumb 8.99191 -373.888
lclavicle -3.69739e-014 5.24792e-014
lhumerus -745.341 40.2239 -655.096
lradius 19.8584
lwrist -37.797
lhand -15.8998 355.886
lfingers 7.12502
lthumb 10.2969 385.614
rfemur 344.821 -13.4867 373.961
rtibia 76.5542
rfoot 1.9736 11.5574
rtoes 9.27043
lfemur -18.3838 -0.698959 -18.0609
ltibia 47.0026
lfoot -17.1004 -10.1538
ltoes 1.71924
4
root 0.433147 16.7943 -9.82375 -1082.59 51.0756 6.70856
lowerback 27.9613 -0.517274 -5.65589
upperback 9.31288 -1.89592 -3.21866
thorax -4.91159 -0.723434 0.271962
lowerneck 2.32544 0.0382292 -5.59221
upperneck 19.9805 -0.588529 7.18636
head 5.64622 -0.106949 3.21338
rclavicle -6.08281e-014 2.22639e-014
rhumerus -34.7741 -14.2077 -79.1432
rradius 21.6707
rwrist 20.5253
rhand -18.0501 -343.901
rfingers 7.12502
rthumb 8.22194 -373.721
lclavicle -6.08281e-014 2.22639e-014
lhumerus -744.628 39.2608 -654.405
lradius 20.0688
lwrist -36.6244
lhand -16.3182 355.772
lfingers 7.12502
lthumb 9.89313 385.52
rfemur 343.775 -13.8955 374.305
rtibia 75.8009
rfoot 1.72362 12.3388
rtoes 9.89907
lfemur -18.0251 -0.270213 -17.9484
ltibia 47.3117
lfoot -17.5513 -10.1437
ltoes 1.51335
5
root 0.527869 16.7974 -9.77737 -1082.77 50.4657 6.54299
lowerback 28.072 -0.627313 -5.72514
upperback 9.45003 -2.04955 -3.18701
thorax -4.79935 -0.802795 0.39363
lowerneck 2.47623 0.215792 -5.56285
upperneck 19.8915 -0.332666 7.02247
head 5.57665 0.0026415 3.16305
rclavicle 3.85642e-014 1.27222e-014
rhumerus -34.8024 -13.4036 -79.6769
rradius 22.6997
rwrist 19.0273
rhand -18.716 -343.558
rfingers 7.12502
rthumb 7.57931 -373.402
lclavicle 3.85642e-014 1.27222e-014
lhumerus -743.94 38.0199 -653.626
lradius 20.3612
lwrist -35.2002
lhand -16.6808 355.735
lfingers 7.12502
lthumb 9.54335 385.499
rfemur 342.831 -14.3107 374.6
rtibia 74.9035
rfoot 1.30915 13.2463
rtoes 10.3322
lfemur -17.5992 0.157356 -17.8624
ltibia 47.5895
lfoot -17.982 -10.1601
ltoes 1.2432
6
root 0.62322 16.8009 -9.72953 -1082.9 49.8572 6.43401
lowerback 28.1577 -0.732088 -5.8218
upperback 9.58347 -2.20225 -3.1522
thorax -4.67699 -0.882857 0.533596
lowerneck 2.64222 0.393746 -5.587
upperneck 19.8096 -0.0797709 6.88362
head 5.50746 0.108833 3.12944
rclavicle 1.94809e-014 -3.97569e-014
rhumerus -34.8133 -12.5352 -80.1948
rradius 23.6545
rwrist 17.6164
rhand -19.3682 -343.198
rfingers 7.12502
rthumb 6.94973 -373.064
lclavicle 1.94809e-014 -3.97569e-014
lhumerus -743.29 36.8329 -652.874
lradius 20.6891
lwrist -33.8691
lhand -16.9775 355.756
lfingers 7.12502
lthumb 9.25709 385.532
rfemur 341.911 -14.7378 374.837
rtibia 73.9093
rfoot 0.86868 14.12
rtoes 10.9165
lfemur -17.1623 0.597455 -17.8081
ltibia 47.8293
lfoot -18.3738 -10.1915
ltoes 1.13036
7
root 0.718791 16.8059 -9.68072 -1083.03 49.2383 6.3088
lowerback 28.2446 -0.834317 -5.84557
upperback 9.6987 -2.33653 -3.14068
thorax -4.58071 -0.952463 0.60098
lowerneck 2.85599 0.552094 -5.57207
upperneck 19.7078 0.145527 6.73557
head 5.42645 0.203635 3.08426
rclavicle -2.74323e-014 -1.82882e-014
rhumerus -34.8659 -11.5592 -80.7684
rradius 24.5973
rwrist 16.0315
rhand -19.911 -342.87
rfingers 7.12502
rthumb 6.42571 -372.753
lclavicle -2.74323e-014 -1.82882e-014
lhumerus -742.656 35.453 -652.165
lradius 21.0616
lwrist -32.4603
lhand -17.085 355.818
lfingers 7.12502
lthumb 9.15331 385.6
rfemur 340.989 -15.1419 375.103
rtibia 72.8382
rfoot 0.479422 14.8958
rtoes 11.549
lfemur -16.7067 1.06027 -17.7401
ltibia 48.0341
lfoot -18.777 -10.2115
ltoes 0.906464
8
root 0.813196 16.812 -9.63179 -1083.15 48.6296 6.21086
lowerback 28.3416 -0.939742 -5.87434
upperback 9.82571 -2.47528 -3.12941
thorax -4.47504 -1.02448 0.672189
lowerneck 3.08159 0.715118 -5.62711
upperneck 19.5624 0.366815 6.65912
head 5.32967 0.295698 3.07232
rclavicle -1.23246e-014 2.3059e-014
rhumerus -34.8978 -10.7908 -81.2079
rradius 25.4786
rwrist 14.8013
rhand -20.2987 -342.427
rfingers 7.12502
rthumb 6.05144 -372.321
lclavicle -1.23246e-014 2.3059e-014
lhumerus -742.065 34.0749 -651.462
lradius 21.5157
lwrist -31.0925
lhand -17.1685 355.881
lfingers 7.12502
lthumb 9.07274 385.666
rfemur 340.086 -15.5804 375.349
rtibia 71.7222
rfoot 0.12163 15.4802
rtoes 12.0394
lfemur -16.2314 1.51395 -17.6847
ltibia 48.2082
lfoot -19.1284 -10.2352
ltoes 0.747665
